<svg version="1.1" id="Layer_1" xmlns="http://www.w3.org/2000/svg" xmlns:xlink="http://www.w3.org/1999/xlink" x="0px" y="0px"
	 width="100%" viewBox="0 0 496 496" enable-background="new 0 0 496 496" xml:space="preserve" stroke="red">
<path fill="#ffff" opacity="1.000000" stroke="none"
	d="
M298.341492,275.600647 
	C299.830505,277.685455 298.814636,278.290192 297.152527,278.292664 
	C286.154755,278.309204 275.156708,278.301544 264.159149,278.238312 
	C262.142456,278.226715 260.923248,276.661926 259.645508,275.362946 
	C254.905334,270.544006 250.188751,265.701843 245.463303,260.868408 
	C245.045715,261.016876 244.628113,261.165314 244.210526,261.313782 
	C244.210526,265.394318 244.125381,269.477203 244.237488,273.554657 
	C244.327026,276.810944 243.247620,278.518585 239.653915,278.423676 
	C233.325714,278.256561 226.990158,278.371582 220.657669,278.362518 
	C218.484940,278.359406 216.679031,278.008331 216.686066,275.160522 
	C216.711578,264.828735 216.655350,254.496811 216.655334,244.164932 
	C216.655334,242.684845 216.794815,241.204773 216.872498,239.670547 
	C221.909470,241.079742 225.191132,245.045807 225.291992,249.928436 
	C225.398651,255.092224 225.453491,260.264862 225.267319,265.424133 
	C225.146118,268.783112 226.600357,269.743317 229.738052,269.714996 
	C232.847977,269.686920 234.955231,269.153320 234.825745,265.392151 
	C234.682465,261.230927 234.673355,257.056946 234.825317,252.896530 
	C234.931641,249.985718 233.072754,248.360718 231.330231,246.586609 
	C224.681946,239.817780 218.091187,232.990356 211.337769,226.327942 
	C208.900864,223.923859 208.865646,222.233505 211.384750,219.764648 
	C218.281479,213.005554 224.878586,205.941818 231.686234,199.089996 
	C233.805481,196.956985 235.015915,194.693283 234.853561,191.586090 
	C234.662567,187.930130 234.675949,184.248825 234.862961,180.591934 
	C235.048996,176.953964 234.146164,175.095261 229.904831,175.173828 
	C225.897827,175.248062 225.179138,177.033401 225.303207,180.420746 
	C225.480011,185.246979 225.112244,190.098816 225.404922,194.913712 
	C225.760895,200.769791 221.673599,203.113403 217.516113,206.676987 
	C216.187805,202.407867 216.747101,198.930573 216.707016,195.539917 
	C216.616425,187.875275 216.812302,180.205658 216.628372,172.544388 
	C216.539169,168.828262 217.983688,167.518738 221.617233,167.643677 
	C227.276550,167.838242 232.954834,167.873398 238.610916,167.637070 
	C242.632401,167.469055 244.460724,168.781219 244.193588,173.020569 
	C243.935623,177.114578 244.137711,181.237610 244.137711,185.321274 
	C249.139709,180.641556 253.982315,176.422836 258.437012,171.828049 
	C261.170715,169.008347 263.951050,167.553909 268.016205,167.615768 
	C282.511139,167.836288 297.012512,167.599060 311.509186,167.751831 
	C321.836090,167.860657 331.131653,171.213943 339.161774,177.761917 
	C358.453522,193.492981 355.173676,221.846634 332.695068,233.939240 
	C331.099854,234.797409 329.471619,235.594162 327.147186,236.783524 
	C336.850403,250.599869 346.324738,264.090271 356.475189,278.543427 
	C347.962189,279.623505 340.789459,279.022583 333.635010,278.007996 
	C332.954529,277.911530 332.295502,277.062042 331.788483,276.431854 
	C318.603973,260.044739 310.438110,240.767120 300.730011,222.378922 
	C300.458405,221.864487 300.624420,221.119034 300.592194,220.578690 
	C302.261963,219.377396 303.973846,219.804581 305.601746,219.769623 
	C308.766785,219.701645 311.941528,219.840775 315.097656,219.651215 
	C324.835785,219.066330 332.703156,211.888123 332.646698,203.770798 
	C332.591431,195.825638 324.529663,188.058228 315.298279,187.349991 
	C308.657867,186.840546 301.991333,186.670822 295.335999,186.358932 
	C294.171112,186.304352 292.801849,186.686523 291.870270,186.204117 
	C284.987793,182.640091 281.319885,187.243301 277.208069,191.490250 
	C268.632965,200.347168 259.817017,208.970490 251.155563,217.744629 
	C249.547516,219.373627 247.596817,220.757507 246.237564,223.957291 
	C263.375549,240.932373 280.742737,258.134430 298.341492,275.600647 
M263.221741,180.593124 
	C250.919342,193.015228 238.623489,205.443817 226.311447,217.856369 
	C221.129013,223.081100 221.023148,223.154327 226.216019,228.448074 
	C237.872849,240.331329 250.029144,251.756409 261.163788,264.105835 
	C266.227570,269.722076 271.352570,270.313904 279.313446,268.901276 
	C268.027252,257.851746 257.590118,247.619217 247.121567,237.418869 
	C246.471588,236.785522 245.450974,235.536484 244.658203,236.486847 
	C242.347198,239.257202 241.142349,236.706207 239.886581,235.582642 
	C235.269119,231.451172 232.943146,220.929398 235.162430,214.966507 
	C236.941986,210.185135 242.801773,207.403046 244.660431,209.189590 
	C255.467407,198.551392 266.254211,187.933060 277.106110,177.250656 
	C272.514465,177.338028 267.510040,175.489731 263.221741,180.593124 
z"/>
<path fill="#ffff" opacity="1.000000" stroke="none"
	d="
M289.793427,244.028900 
	C290.432434,238.020233 289.470642,236.789536 284.008850,237.090286 
	C280.972961,237.257462 280.512543,235.100372 279.740723,233.133804 
	C278.951294,231.122284 277.995148,229.166443 280.692444,227.537338 
	C284.464417,225.259186 285.078583,222.579605 280.836761,220.062668 
	C278.310059,218.563416 279.387543,216.644394 280.152802,214.874954 
	C281.029572,212.847885 281.471588,209.955505 284.739655,210.708511
	C289.350861,211.771011 291.057648,209.691895 290.511383,205.469315 
	C290.124329,202.477676 291.968719,201.719269 294.079529,200.990723 
	C296.259979,200.238129 298.496490,199.054596 300.148682,201.976608 
	C301.743103,204.796478 304.484253,206.058487 306.559937,203.386795 
	C309.621338,199.446274 312.279083,201.422714 315.176453,202.910492 
	C316.652649,203.668488 318.556213,212.296661 317.509033,213.469391 
	C315.570312,215.640564 313.678894,214.977798 311.367462,213.601257 
	C301.840302,207.927567 292.060791,212.102417 289.920746,222.563736 
	C288.674713,228.654800 293.084686,235.521103 299.581726,237.482742 
	C301.576080,238.084885 303.899902,237.819519 304.439331,240.806747 
	C305.037048,244.116745 301.863983,243.575882 300.786743,244.960037 
	C296.636383,250.292953 293.311523,247.916138 289.793427,244.028900 
z"/>
</svg>